<?xml version="1.0" standalone="no"?>
<!DOCTYPE svg PUBLIC "-//W3C//DTD SVG 20010904//EN"
 "http://www.w3.org/TR/2001/REC-SVG-20010904/DTD/svg10.dtd">
<svg version="1.0" xmlns="http://www.w3.org/2000/svg"
 width="1280.000000pt" height="1034.000000pt" viewBox="0 0 1280.000000 1034.000000"
 preserveAspectRatio="xMidYMid meet">
<g transform="translate(0.000000,1034.000000) scale(0.100000,-0.100000)"
fill="#000000" stroke="none">
<path d="M6230 10331 c-8 -5 -45 -14 -82 -20 -142 -24 -321 -84 -451 -151
-245 -125 -427 -333 -506 -579 -23 -71 -55 -220 -49 -226 2 -2 185 26 406 63
350 58 404 65 412 52 15 -24 13 -543 -2 -563 -10 -13 -91 -27 -388 -67 -206
-27 -385 -52 -397 -55 l-23 -5 0 -350 c0 -202 4 -350 9 -350 5 0 109 14 232
31 158 21 229 35 244 47 12 9 68 54 124 99 227 184 411 281 639 339 90 23 128
27 242 28 197 0 352 -37 553 -131 94 -45 98 -46 112 -27 39 49 137 267 162
359 24 89 26 119 27 275 1 193 -9 264 -56 400 -92 263 -225 469 -382 596 -167
133 -332 191 -646 223 -52 6 -111 13 -130 16 -19 3 -42 1 -50 -4z"/>
<path d="M6487 8440 c-76 -14 -185 -49 -264 -85 -54 -25 -363 -253 -1252 -924
-649 -490 -1187 -894 -1195 -897 -8 -3 -16 -1 -19 3 -3 5 -11 76 -17 159 -6
82 -13 159 -15 171 l-5 22 -83 -30 c-45 -17 -199 -74 -342 -126 -495 -179
-675 -252 -885 -358 -439 -223 -687 -477 -772 -794 -26 -96 -36 -334 -19 -451
26 -177 90 -376 189 -582 44 -95 59 -118 76 -118 82 -1 345 -24 461 -41 880
-128 1507 -600 1876 -1410 107 -236 205 -538 264 -809 14 -69 31 -137 37 -152
15 -40 160 -175 259 -241 307 -203 735 -318 1414 -377 186 -16 734 -30 1515
-38 410 -5 747 -7 749 -5 2 2 -3 65 -12 140 -42 345 -47 721 -12 992 137 1076
784 1702 1955 1891 217 35 445 52 785 58 l329 7 38 50 c139 181 167 410 73
596 -14 27 -42 68 -62 89 l-35 40 -1012 0 c-585 0 -1017 4 -1025 9 -8 5 -21
33 -28 63 -33 130 -100 239 -383 618 -108 146 -210 284 -225 308 -15 23 -29
42 -30 42 -2 0 -306 -237 -677 -526 l-673 -526 -1010 3 -1010 3 -63 -22 c-157
-56 -241 -153 -296 -344 -15 -51 -29 -84 -39 -86 -21 -4 -184 63 -316 130
-336 172 -601 413 -736 670 l-30 58 25 24 c62 58 2033 1557 2045 1554 8 -2
307 -410 664 -908 358 -498 654 -906 659 -908 5 -1 1313 970 1352 1005 7 7
-12 34 -283 395 -141 188 -346 462 -454 608 -409 548 -658 838 -779 906 -92
52 -212 100 -307 125 -91 24 -314 35 -400 19z"/>
<path d="M1906 4179 c-929 -88 -1686 -778 -1860 -1694 -61 -321 -52 -582 30
-903 149 -583 537 -1068 1074 -1341 255 -130 479 -192 806 -225 120 -12 160
-12 289 1 540 52 971 249 1330 608 585 584 770 1465 469 2233 -224 571 -682
1013 -1260 1213 -268 93 -605 134 -878 108z m453 -724 c187 -36 392 -126 552
-241 43 -32 123 -103 177 -158 188 -194 305 -413 364 -684 29 -130 31 -394 5
-525 -112 -558 -535 -985 -1092 -1102 -117 -25 -338 -30 -460 -11 -586 90
-1038 516 -1162 1096 -25 119 -26 420 0 537 127 591 597 1028 1187 1103 94 13
332 4 429 -15z"/>
<path d="M10385 4160 c-345 -53 -662 -187 -943 -397 -104 -78 -289 -258 -372
-363 -502 -631 -598 -1494 -246 -2215 212 -434 544 -762 986 -974 203 -97 385
-150 640 -186 236 -34 292 -32 595 15 571 89 1085 428 1415 930 113 172 212
399 265 609 23 91 32 147 66 382 26 188 -24 549 -112 808 -160 468 -485 870
-911 1123 -247 147 -526 241 -818 278 -134 16 -426 11 -565 -10z m587 -710
c646 -132 1108 -695 1108 -1349 0 -283 -79 -542 -238 -780 -74 -111 -252 -289
-363 -363 -398 -266 -892 -313 -1323 -127 -616 265 -957 947 -795 1591 67 269
199 493 399 681 216 203 488 330 790 367 106 13 307 3 422 -20z"/>
</g>
</svg>
